<svg width="1200" height="360" viewBox="0 0 1200 360" fill="none" xmlns="http://www.w3.org/2000/svg" role="img" aria-labelledby="title desc">
  <title id="title">Food Prediction Model banner</title>
  <desc id="desc">A banner for Tasty Bytes recipe traffic prediction with a clear title area and an analytics card.</desc>
  <defs>
    <linearGradient id="bg" x1="0" y1="0" x2="1200" y2="360" gradientUnits="userSpaceOnUse">
      <stop offset="0" stop-color="#0F172A"/>
      <stop offset="0.58" stop-color="#164E63"/>
      <stop offset="1" stop-color="#F97316"/>
    </linearGradient>
    <linearGradient id="card" x1="0" y1="0" x2="1" y2="1">
      <stop offset="0" stop-color="#FFFFFF" stop-opacity="0.98"/>
      <stop offset="1" stop-color="#FFF7ED" stop-opacity="0.94"/>
    </linearGradient>
    <filter id="shadow" x="-20%" y="-20%" width="140%" height="140%">
      <feDropShadow dx="0" dy="16" stdDeviation="18" flood-color="#020617" flood-opacity="0.30"/>
    </filter>
    <pattern id="dots" width="30" height="30" patternUnits="userSpaceOnUse">
      <circle cx="3" cy="3" r="2" fill="#FFFFFF" opacity="0.13"/>
    </pattern>
  </defs>

  <rect width="1200" height="360" rx="36" fill="url(#bg)"/>
  <rect width="1200" height="360" rx="36" fill="url(#dots)"/>
  <path d="M0 278C134 230 259 255 376 292C505 333 620 368 769 314C913 262 1004 184 1200 213V360H0V278Z" fill="#FFFFFF" opacity="0.12"/>
  <path d="M0 78C120 113 224 108 350 65C501 14 643 3 775 48C936 102 1032 139 1200 91V0H0V78Z" fill="#38BDF8" opacity="0.12"/>

  <g aria-label="Title block">
    <text x="84" y="105" fill="#FFFFFF" font-family="Inter,Segoe UI,Arial,sans-serif" font-size="24" font-weight="800" letter-spacing="4">TASTY BYTES</text>
    <text x="84" y="164" fill="#FFFFFF" font-family="Inter,Segoe UI,Arial,sans-serif" font-size="54" font-weight="900" letter-spacing="-1.2">Recipe Traffic</text>
    <text x="84" y="216" fill="#FFEDD5" font-family="Inter,Segoe UI,Arial,sans-serif" font-size="46" font-weight="900" letter-spacing="-0.9">Prediction Model</text>
    <text x="86" y="252" fill="#E0F2FE" font-family="Inter,Segoe UI,Arial,sans-serif" font-size="20" font-weight="600">Precision-first classifier for selecting high-traffic homepage recipes.</text>

    <g transform="translate(84 280)">
      <rect width="126" height="38" rx="19" fill="#FFFFFF" opacity="0.16"/>
      <text x="18" y="25" fill="#FFFFFF" font-family="Inter,Segoe UI,Arial,sans-serif" font-size="16" font-weight="800">Jupyter</text>
      <rect x="144" width="124" height="38" rx="19" fill="#FFFFFF" opacity="0.16"/>
      <text x="162" y="25" fill="#FFFFFF" font-family="Inter,Segoe UI,Arial,sans-serif" font-size="16" font-weight="800">pandas</text>
      <rect x="286" width="150" height="38" rx="19" fill="#FFFFFF" opacity="0.16"/>
      <text x="304" y="25" fill="#FFFFFF" font-family="Inter,Segoe UI,Arial,sans-serif" font-size="16" font-weight="800">scikit-learn</text>
    </g>
  </g>

  <g filter="url(#shadow)" aria-label="Analytics card">
    <rect x="800" y="64" width="322" height="232" rx="30" fill="url(#card)"/>
    <text x="836" y="112" fill="#0F172A" font-family="Inter,Segoe UI,Arial,sans-serif" font-size="22" font-weight="900">Model signal</text>
    <text x="836" y="140" fill="#475569" font-family="Inter,Segoe UI,Arial,sans-serif" font-size="15" font-weight="600">Wilson 95% precision tracking</text>

    <rect x="838" y="247" width="34" height="18" rx="8" fill="#38BDF8"/>
    <rect x="890" y="211" width="34" height="54" rx="8" fill="#F97316"/>
    <rect x="942" y="174" width="34" height="91" rx="8" fill="#22C55E"/>
    <rect x="994" y="132" width="34" height="133" rx="8" fill="#A78BFA"/>
    <rect x="1046" y="101" width="34" height="164" rx="8" fill="#FB7185"/>

    <path d="M840 226C880 219 904 190 944 181C984 172 1013 130 1078 113" stroke="#0F172A" stroke-width="8" stroke-linecap="round" opacity="0.76"/>
    <circle cx="1079" cy="113" r="12" fill="#F97316"/>

    <g transform="translate(836 163)">
      <rect width="106" height="34" rx="17" fill="#DCFCE7"/>
      <text x="16" y="23" fill="#166534" font-family="Inter,Segoe UI,Arial,sans-serif" font-size="15" font-weight="900">High</text>
      <rect x="122" width="138" height="34" rx="17" fill="#FFEDD5"/>
      <text x="138" y="23" fill="#9A3412" font-family="Inter,Segoe UI,Arial,sans-serif" font-size="15" font-weight="900">Low false +</text>
    </g>
  </g>
</svg>
